<?xml version="1.0" encoding="utf-8"?>
<!-- Generator: Adobe Illustrator 16.0.0, SVG Export Plug-In . SVG Version: 6.00 Build 0)  -->
<!DOCTYPE svg PUBLIC "-//W3C//DTD SVG 1.1//EN" "http://www.w3.org/Graphics/SVG/1.1/DTD/svg11.dtd">
<svg version="1.1" id="图层_1" xmlns="http://www.w3.org/2000/svg" xmlns:xlink="http://www.w3.org/1999/xlink" x="0px" y="0px"
	 width="200px" height="200px" viewBox="0 0 200 200" enable-background="new 0 0 200 200" xml:space="preserve">
<g>
	<path fill="#FFFFFF" d="M72,161.334H37.45V75H72V161.334z M47.45,151.334H62V85H47.45V151.334z"/>
</g>
<g>
	<path fill="#FFFFFF" d="M117.275,161.334h-34.55V91.667h34.55V161.334z"/>
</g>
<g>
	<path fill="#FFFFFF" d="M87.721,72.321c-24.871,0-46.611-12.322-47.768-12.989c-2.392-1.379-3.214-4.437-1.835-6.829
		c1.378-2.39,4.434-3.213,6.825-1.837c0.351,0.2,32.683,18.443,60.601,8.833c28.907-9.952,48.499-32.069,48.693-32.292
		c1.819-2.078,4.979-2.288,7.056-0.47c2.078,1.819,2.288,4.978,0.47,7.056c-0.866,0.989-21.565,24.352-52.963,35.161
		C101.781,71.37,94.63,72.321,87.721,72.321z"/>
</g>
<path fill="#FFFFFF" d="M128.449,55v106.334H163V55H128.449z M153,129.505l-14.551,14.551v-8.284L153,121.221V129.505z M153,107.08
	l-14.551,14.551v-9.482L153,97.598V107.08z M153,83.457l-14.551,14.551v-8.082L153,75.375V83.457z M149.234,65l-10.785,10.785V65
	H149.234z M145.312,151.334l7.688-7.688v7.688H145.312z"/>
</svg>
